<?xml version="1.0" encoding="utf-8"?>
<!-- Generator: Adobe Illustrator 16.0.0, SVG Export Plug-In . SVG Version: 6.00 Build 0)  -->
<!DOCTYPE svg PUBLIC "-//W3C//DTD SVG 1.1//EN" "http://www.w3.org/Graphics/SVG/1.1/DTD/svg11.dtd">
<svg version="1.1" id="Layer_1" xmlns="http://www.w3.org/2000/svg" xmlns:xlink="http://www.w3.org/1999/xlink" x="0px" y="0px"
	 width="89.852px" height="122.506px" viewBox="207.503 101.179 89.852 122.506"
	 enable-background="new 207.503 101.179 89.852 122.506" xml:space="preserve">
<path fill="#C1A067" d="M252.351,101.179c-24.77,0.042-44.896,20.216-44.848,44.979c0.018,5.134,0.887,10.066,2.477,14.662
	c2.805,8.037,7.826,15.04,14.32,20.269c5.902,4.855,10,11.811,11.16,19.713h0.012c0.064,0.586,0.449,1.07,0.982,1.26
	c0.012,0.006,0.023,0.006,0.047,0.006c0.035,0.018,0.076,0.018,0.105,0.035c4.059,1.136,8.293,1.863,12.652,2.105
	c1.088,0.06,2.17,0.083,3.27,0.083c1.076,0,2.129-0.035,3.193-0.095c4.383-0.242,8.648-0.97,12.723-2.141h0.012
	c0,0,0.012,0,0.012-0.006c0.496-0.166,0.887-0.592,1.006-1.095c0-0.082,0.012-0.153,0.012-0.225
	c1.088-7.512,4.838-14.171,10.256-18.991c0.668-0.598,1.371-1.177,2.105-1.721c5.908-5.134,10.475-11.782,13.07-19.347
	c1.598-4.602,2.449-9.54,2.438-14.655C297.308,121.265,277.126,101.133,252.351,101.179 M271.236,171.289
	c-5.932,5.146-10.498,11.8-13.1,19.364c-0.438,0.06-0.869,0.112-1.318,0.147c-1.408,0.143-2.852,0.22-4.313,0.22
	c-1.502,0-2.98-0.071-4.436-0.22c-0.426-0.035-0.863-0.088-1.295-0.136c-2.799-8.025-7.818-15.04-14.307-20.274v-0.012
	C225.47,164.63,221,155.9,220.976,146.147c-0.029-17.341,14.059-31.471,31.412-31.5c17.334-0.036,31.469,14.053,31.494,31.394
	c0.012,9.356-4.07,17.767-10.559,23.557C272.656,170.177,271.958,170.757,271.236,171.289"/>
<path fill="#C1A067" d="M267.765,140.978c-2.846,0-5.17,2.2-5.377,4.985v0.118c0,0.16,0,0.337-0.012,0.491
	c-0.012,0.012-0.012,0.012,0,0.012c-0.26,5.264-4.619,9.457-9.924,9.457c-5.4,0.018-9.795-4.271-9.979-9.61v-0.112
	c-0.064-2.922-2.453-5.276-5.398-5.265c-2.977,0-5.371,2.413-5.371,5.389c0.172,11.284,9.439,20.398,20.76,20.381
	c11.225-0.023,20.363-8.996,20.688-20.15c0.014-0.023,0.014-0.048,0.014-0.083v-0.331
	C273.105,143.32,270.705,140.972,267.765,140.978"/>
<path fill="#C1A067" d="M268.646,207.054c-0.041,0-0.076,0-0.119,0.012c0,0-0.035,0.006-0.035,0.012
	c-4.068,1.064-8.291,1.744-12.639,1.97c-1.094,0.059-2.205,0.101-3.33,0.101c-1.141,0-2.289-0.024-3.406-0.095
	c-4.359-0.213-8.6-0.888-12.674-1.952c-0.02,0-0.043-0.018-0.066-0.018c-0.041-0.006-0.07-0.012-0.105-0.012
	c-0.279,0-0.498,0.213-0.545,0.473c0,0.065,0.012,0.124,0.023,0.178v0.012c0.303,6.589,4.412,12.189,10.18,14.632
	c2.01,0.853,4.229,1.319,6.547,1.319c2.336-0.012,4.561-0.491,6.594-1.36c5.75-2.479,9.83-8.097,10.084-14.68
	c0.012-0.023,0.012-0.029,0.012-0.047v-0.018C269.166,207.279,268.929,207.054,268.646,207.054"/>
</svg>
